<svg width="460" height="460" viewBox="0 0 460 460" fill="none" xmlns="http://www.w3.org/2000/svg">
<path d="M418.472 230C418.472 230.779 418.472 231.559 418.472 232.338C417.224 335.353 333.329 418.468 230.017 418.468H229.616C213.753 418.446 197.956 416.425 182.598 412.454C181.84 412.258 181.085 412.056 180.332 411.849C100.331 390.055 41.5273 316.889 41.5273 230C41.5273 125.908 125.908 41.5278 230 41.5278C311.066 41.5278 380.172 92.7071 406.78 164.51C407.348 166.069 407.905 167.63 408.45 169.195L408.876 170.524C415.248 189.705 418.488 209.788 418.472 230Z" fill="#4589FF"/>
<path d="M418.472 230C418.472 230.78 418.472 231.559 418.472 232.338C417.224 335.353 333.33 418.468 230.017 418.468H229.617C222.612 418.457 215.613 418.058 208.653 417.271L100.438 317.741C100.438 317.741 292.611 245.333 298.071 239.796C303.532 234.259 303.183 106.963 303.183 106.963L340.451 107.538L406.78 164.51C407.348 166.069 407.905 167.63 408.45 169.195L408.876 170.524C415.248 189.705 418.489 209.788 418.472 230Z" fill="#005DFF"/>
<path d="M104.884 287.074H154.343C155.522 287.074 156.653 287.543 157.487 288.377C158.321 289.211 158.789 290.342 158.789 291.521V317.741H100.438V291.521C100.437 290.342 100.906 289.211 101.74 288.377C102.574 287.543 103.705 287.074 104.884 287.074Z" fill="white"/>
<path d="M165.877 239.796H210.05C211.929 239.796 213.732 240.543 215.061 241.872C216.39 243.201 217.137 245.004 217.137 246.884V317.741H158.785V246.884C158.785 245.953 158.969 245.031 159.325 244.171C159.682 243.31 160.204 242.529 160.863 241.871C161.521 241.213 162.303 240.691 163.163 240.335C164.024 239.979 164.946 239.796 165.877 239.796Z" fill="white"/>
<path d="M226.14 192.093H266.493C268.88 192.093 271.169 193.041 272.856 194.729C274.544 196.416 275.492 198.705 275.492 201.092V317.741H217.141V201.092C217.141 198.705 218.089 196.416 219.777 194.729C221.464 193.041 223.754 192.093 226.14 192.093Z" fill="white"/>
<path d="M286.142 162.278H323.197C326.021 162.278 328.73 163.4 330.727 165.397C332.723 167.394 333.845 170.102 333.845 172.926V317.106C333.845 317.274 333.778 317.436 333.659 317.555C333.54 317.674 333.379 317.741 333.211 317.741H276.137C275.968 317.741 275.807 317.674 275.688 317.555C275.569 317.436 275.502 317.274 275.502 317.106V172.926C275.502 170.103 276.623 167.396 278.618 165.4C280.613 163.403 283.319 162.28 286.142 162.278Z" fill="white"/>
<path fill-rule="evenodd" clip-rule="evenodd" d="M185.84 225.981C186.648 225.945 187.333 226.571 187.368 227.379C187.404 228.187 187.439 228.818 187.465 229.246C187.477 229.46 187.488 229.623 187.495 229.732C187.499 229.786 187.502 229.827 187.504 229.854L187.506 229.884L187.506 229.892C187.506 229.892 187.506 229.892 186.045 230L184.584 230.108C184.643 230.915 185.346 231.521 186.153 231.461C186.96 231.402 187.566 230.699 187.506 229.892M186.045 230C184.584 230.108 184.584 230.108 184.584 230.108L184.583 230.095L184.581 230.06C184.578 230.03 184.575 229.986 184.572 229.928C184.564 229.813 184.553 229.643 184.54 229.422C184.513 228.98 184.477 228.333 184.441 227.509C184.405 226.701 185.031 226.017 185.84 225.981" fill="white"/>
<path fill-rule="evenodd" clip-rule="evenodd" d="M213.833 165.994C212.184 165.818 210.652 165.834 209.227 166.017C208.425 166.119 207.691 165.552 207.588 164.749C207.486 163.946 208.053 163.212 208.856 163.11C210.523 162.897 212.284 162.882 214.144 163.08C214.949 163.166 215.531 163.888 215.445 164.692C215.36 165.497 214.638 166.08 213.833 165.994ZM217.47 165.113C217.694 164.335 218.505 163.886 219.283 164.11C220.831 164.556 222.439 165.132 224.108 165.848C224.852 166.166 225.197 167.028 224.878 167.771C224.56 168.515 223.698 168.86 222.954 168.541C221.386 167.869 219.893 167.335 218.473 166.926C217.695 166.702 217.246 165.89 217.47 165.113ZM205.599 165.284C205.92 166.027 205.579 166.889 204.837 167.211C203.435 167.818 202.141 168.621 200.944 169.596C200.317 170.107 199.394 170.013 198.883 169.386C198.372 168.758 198.466 167.835 199.093 167.324C200.484 166.191 202.007 165.244 203.672 164.522C204.414 164.2 205.277 164.542 205.599 165.284ZM226.715 168.673C227.101 167.962 227.99 167.698 228.701 168.083C230.116 168.851 231.573 169.711 233.074 170.666C233.756 171.101 233.957 172.006 233.523 172.689C233.088 173.371 232.182 173.572 231.5 173.138C230.053 172.216 228.655 171.392 227.304 170.659C226.593 170.274 226.329 169.384 226.715 168.673ZM197.46 170.87C198.096 171.37 198.206 172.292 197.706 172.928C196.765 174.125 195.9 175.45 195.108 176.884C194.717 177.592 193.825 177.849 193.117 177.458C192.409 177.067 192.152 176.175 192.543 175.467C193.401 173.914 194.351 172.453 195.403 171.116C195.903 170.48 196.824 170.37 197.46 170.87ZM235.212 173.837C235.683 173.179 236.599 173.028 237.256 173.5C237.944 173.993 238.64 174.504 239.345 175.035C239.991 175.522 240.12 176.441 239.633 177.087C239.146 177.733 238.228 177.863 237.581 177.376C236.895 176.858 236.217 176.36 235.549 175.882C234.892 175.41 234.741 174.495 235.212 173.837ZM192.246 179.316C192.995 179.621 193.355 180.476 193.05 181.225C192.453 182.69 191.914 184.222 191.427 185.803C191.189 186.576 190.369 187.01 189.596 186.772C188.822 186.534 188.389 185.714 188.627 184.94C189.136 183.287 189.703 181.674 190.336 180.12C190.642 179.37 191.497 179.01 192.246 179.316ZM189.067 188.751C189.854 188.936 190.343 189.724 190.158 190.512C189.787 192.092 189.46 193.699 189.173 195.315C189.031 196.111 188.27 196.642 187.474 196.501C186.677 196.359 186.146 195.598 186.288 194.801C186.584 193.138 186.921 191.479 187.305 189.842C187.49 189.054 188.279 188.566 189.067 188.751ZM187.163 198.528C187.965 198.633 188.53 199.37 188.424 200.172C188.207 201.819 188.026 203.458 187.876 205.071C187.801 205.877 187.087 206.469 186.281 206.394C185.476 206.319 184.883 205.605 184.958 204.799C185.112 203.152 185.297 201.476 185.519 199.789C185.625 198.987 186.361 198.422 187.163 198.528ZM186.127 208.435C186.935 208.483 187.551 209.176 187.503 209.984C187.401 211.69 187.331 213.341 187.285 214.915C187.261 215.724 186.586 216.36 185.777 216.337C184.968 216.313 184.332 215.638 184.356 214.829C184.403 213.228 184.474 211.547 184.578 209.81C184.626 209.002 185.32 208.386 186.127 208.435ZM185.746 218.389C186.555 218.39 187.211 219.046 187.21 219.856C187.209 220.719 187.214 221.54 187.224 222.315C187.234 223.124 186.587 223.788 185.778 223.798C184.969 223.809 184.304 223.161 184.294 222.352C184.284 221.565 184.278 220.729 184.279 219.852C184.28 219.043 184.937 218.388 185.746 218.389Z" fill="white"/>
<path fill-rule="evenodd" clip-rule="evenodd" d="M242.524 175.362C243.333 175.373 243.98 176.038 243.97 176.847C243.959 177.657 243.954 178.292 243.951 178.724C243.95 178.941 243.949 179.106 243.949 179.217L243.948 179.342L243.948 179.383C243.948 179.383 243.948 179.383 243.948 179.383M242.524 175.362C241.84 175.353 241.26 175.814 241.09 176.444L242.524 175.362Z" fill="white"/>
<path fill-rule="evenodd" clip-rule="evenodd" d="M271.988 120.362C272.082 119.558 272.81 118.983 273.614 119.078C275.58 119.309 277.529 119.837 279.429 120.646C280.174 120.962 280.52 121.823 280.204 122.567C279.887 123.312 279.026 123.659 278.282 123.342C276.624 122.637 274.945 122.185 273.272 121.988C272.468 121.894 271.893 121.166 271.988 120.362ZM269.285 120.468C269.445 121.261 268.931 122.034 268.138 122.194C266.5 122.524 264.875 123.113 263.288 123.977C262.577 124.364 261.687 124.101 261.3 123.39C260.914 122.679 261.176 121.79 261.887 121.403C263.723 120.404 265.624 119.711 267.559 119.321C268.352 119.162 269.125 119.675 269.285 120.468ZM282.535 123.927C283.015 123.276 283.932 123.137 284.583 123.618C286.105 124.741 287.572 126.056 288.964 127.555C289.515 128.147 289.481 129.074 288.889 129.625C288.296 130.176 287.369 130.142 286.818 129.55C285.541 128.175 284.21 126.983 282.844 125.976C282.193 125.495 282.054 124.578 282.535 123.927ZM259.124 124.982C259.672 125.578 259.634 126.505 259.039 127.053C258.405 127.637 257.782 128.272 257.172 128.962M259.124 124.982C258.576 124.387 257.649 124.349 257.053 124.898L259.124 124.982ZM257.053 124.898C256.344 125.551 255.651 126.258 254.978 127.019L257.053 124.898ZM254.978 127.019L254.978 127.02L254.978 127.019ZM257.172 128.962C256.572 129.64 255.997 130.358 255.447 131.111C254.97 131.765 254.053 131.908 253.4 131.431C252.746 130.954 252.603 130.038 253.08 129.384C253.68 128.561 254.312 127.771 254.978 127.02M290.559 131.741C291.228 131.285 292.139 131.458 292.595 132.126C293.645 133.667 294.634 135.333 295.55 137.12C295.919 137.84 295.635 138.723 294.915 139.092C294.195 139.462 293.312 139.177 292.943 138.457C292.079 136.773 291.152 135.212 290.174 133.777C289.718 133.108 289.891 132.197 290.559 131.741ZM251.908 133.874C252.625 134.249 252.903 135.134 252.528 135.852C251.676 137.481 250.906 139.2 250.211 140.979C249.917 141.733 249.067 142.105 248.313 141.81C247.56 141.516 247.187 140.666 247.482 139.912C248.21 138.047 249.023 136.23 249.931 134.494C250.306 133.777 251.191 133.499 251.908 133.874ZM296.01 141.558C296.765 141.267 297.613 141.643 297.904 142.398C298.245 143.281 298.57 144.187 298.878 145.115C299.133 145.883 298.717 146.713 297.949 146.968C297.181 147.223 296.352 146.807 296.097 146.039C295.803 145.154 295.494 144.292 295.17 143.452C294.879 142.697 295.255 141.849 296.01 141.558ZM247.393 144.52C248.169 144.75 248.61 145.566 248.379 146.342C247.837 148.164 247.36 150.01 246.941 151.851C246.761 152.64 245.976 153.134 245.187 152.954C244.398 152.774 243.904 151.989 244.084 151.2C244.515 149.304 245.008 147.396 245.571 145.506C245.802 144.73 246.618 144.289 247.393 144.52ZM244.632 155.759C245.43 155.896 245.966 156.653 245.829 157.451C245.495 159.395 245.22 161.294 244.994 163.111C244.894 163.914 244.162 164.484 243.359 164.384C242.556 164.284 241.986 163.552 242.086 162.749C242.317 160.892 242.599 158.948 242.941 156.955C243.077 156.158 243.835 155.622 244.632 155.759ZM243.065 167.234C243.871 167.301 244.471 168.009 244.404 168.815C244.321 169.82 244.253 170.773 244.197 171.667C244.147 172.475 243.451 173.089 242.643 173.038C241.836 172.988 241.222 172.292 241.272 171.484C241.33 170.572 241.399 169.599 241.484 168.574C241.551 167.767 242.258 167.168 243.065 167.234Z" fill="white"/>
<path fill-rule="evenodd" clip-rule="evenodd" d="M297.862 146.681C298.64 146.459 299.451 146.911 299.672 147.69C299.907 148.515 300.129 149.355 300.341 150.208C300.535 150.994 300.056 151.788 299.27 151.983C298.485 152.177 297.69 151.698 297.496 150.912C297.293 150.091 297.078 149.283 296.853 148.491C296.632 147.712 297.084 146.902 297.862 146.681Z" fill="white"/>
<path fill-rule="evenodd" clip-rule="evenodd" d="M131.072 278.706C131.072 278.706 131.072 278.706 130.296 278.739L131.072 278.706C131.107 279.514 130.479 280.198 129.671 280.232C128.862 280.267 128.179 279.639 128.145 278.831L129.608 278.769C128.145 278.831 128.145 278.83 128.145 278.829L128.144 278.809L128.141 278.751C128.139 278.7 128.137 278.625 128.134 278.527C128.127 278.332 128.118 278.045 128.11 277.674C128.093 276.933 128.076 275.856 128.076 274.507C128.077 271.808 128.146 268.015 128.42 263.63C128.967 254.883 130.336 243.681 133.657 234.099C136.953 224.592 142.339 216.209 151.228 213.92C160.105 211.634 171.733 215.619 187.005 228.894C187.616 229.425 187.68 230.351 187.149 230.961C186.619 231.572 185.693 231.637 185.082 231.106C169.975 217.974 159.359 214.852 151.959 216.758C144.569 218.661 139.645 225.772 136.426 235.059C133.233 244.27 131.886 255.164 131.345 263.813C131.075 268.126 131.007 271.856 131.007 274.507C131.006 275.832 131.023 276.886 131.04 277.607C131.048 277.967 131.056 278.244 131.062 278.43C131.065 278.523 131.068 278.593 131.07 278.64L131.072 278.691L131.072 278.706Z" fill="white"/>
<path fill-rule="evenodd" clip-rule="evenodd" d="M304.668 105.472C305.492 105.472 306.159 106.139 306.159 106.963V177.164C306.159 177.987 305.492 178.655 304.668 178.655C303.845 178.655 303.178 177.987 303.178 177.164V106.963C303.178 106.139 303.845 105.472 304.668 105.472Z" fill="white"/>
<path d="M331.715 118.833L340.446 107.538C340.521 107.441 340.567 107.325 340.579 107.203C340.591 107.081 340.569 106.958 340.515 106.848C340.461 106.738 340.377 106.645 340.273 106.581C340.169 106.516 340.049 106.481 339.926 106.481L303.604 106.537V131.338H340.169C340.292 131.339 340.412 131.304 340.516 131.239C340.619 131.174 340.703 131.081 340.756 130.971C340.81 130.86 340.831 130.737 340.817 130.616C340.804 130.494 340.756 130.378 340.68 130.282L331.715 118.833Z" fill="white"/>
<path fill-rule="evenodd" clip-rule="evenodd" d="M275.493 201.859C276.669 201.859 277.623 202.813 277.623 203.989V317.741C277.623 318.917 276.669 319.87 275.493 319.87C274.317 319.87 273.363 318.917 273.363 317.741V203.989C273.363 202.813 274.317 201.859 275.493 201.859Z" fill="#42526E"/>
<path fill-rule="evenodd" clip-rule="evenodd" d="M217.141 247.007C218.318 247.007 219.271 247.961 219.271 249.137V317.741C219.271 318.917 218.318 319.87 217.141 319.87C215.965 319.87 215.012 318.917 215.012 317.741V249.137C215.012 247.961 215.965 247.007 217.141 247.007Z" fill="#42526E"/>
<path fill-rule="evenodd" clip-rule="evenodd" d="M158.79 292.611C159.966 292.611 160.919 293.565 160.919 294.741V317.741C160.919 318.917 159.966 319.87 158.79 319.87C157.614 319.87 156.66 318.917 156.66 317.741V294.741C156.66 293.565 157.614 292.611 158.79 292.611Z" fill="#42526E"/>
</svg>
