<svg width="25" height="22" viewBox="0 0 25 22" fill="none" xmlns="http://www.w3.org/2000/svg">
<path d="M18.961 2.69232L18.961 19.3077C18.9606 19.7972 18.7659 20.2665 18.4198 20.6126C18.0737 20.9587 17.6044 21.1534 17.1149 21.1539L13.4226 21.1539C12.9331 21.1534 12.4638 20.9587 12.1177 20.6126C11.7716 20.2665 11.5769 19.7972 11.5764 19.3077L11.5764 2.69232C11.5769 2.20284 11.7716 1.73354 12.1177 1.38743C12.4638 1.04131 12.9331 0.846652 13.4226 0.846162L17.1149 0.846162C17.6044 0.846652 18.0737 1.04131 18.4198 1.38743C18.7659 1.73354 18.9606 2.20284 18.961 2.69232ZM13.4226 19.3077L17.1149 19.3077L17.1149 2.69232L13.4226 2.69232L13.4226 19.3077ZM13.4226 2.69232L13.4226 19.3077C13.4221 19.7972 13.2274 20.2665 12.8813 20.6126C12.5352 20.9587 12.0659 21.1533 11.5764 21.1538L7.88413 21.1538C7.39465 21.1533 6.92535 20.9587 6.57924 20.6126C6.23312 20.2665 6.03846 19.7972 6.03797 19.3077L6.03797 2.6923C6.03846 2.20282 6.23312 1.73353 6.57924 1.38741C6.92535 1.0413 7.39465 0.846634 7.88413 0.846145L11.5764 0.846145C12.0659 0.846633 12.5352 1.0413 12.8813 1.38741C13.2274 1.73353 13.4221 2.20284 13.4226 2.69232ZM7.88413 19.3077L11.5764 19.3077L11.5764 2.69232L7.88413 2.6923L7.88413 19.3077ZM7.88413 2.6923L7.88413 19.3077C7.88364 19.7972 7.68898 20.2665 7.34286 20.6126C6.99675 20.9587 6.52745 21.1533 6.03797 21.1538L2.34567 21.1538C1.85618 21.1533 1.38689 20.9587 1.04078 20.6126C0.694662 20.2665 0.5 19.7972 0.499512 19.3077L0.499511 2.6923C0.5 2.20282 0.694661 1.73353 1.04078 1.38741C1.38689 1.0413 1.85618 0.846634 2.34566 0.846146L6.03797 0.846145C6.52745 0.846634 6.99675 1.0413 7.34286 1.38741C7.68898 1.73353 7.88364 2.20282 7.88413 2.6923ZM2.34567 19.3077L6.03797 19.3077L6.03797 2.6923L2.34566 2.6923L2.34567 19.3077Z" fill="#42526E"/>
<path d="M24.4995 2.69252L24.4995 19.3079C24.499 19.7974 24.3044 20.2667 23.9582 20.6128C23.6121 20.9589 23.1428 21.1536 22.6534 21.1541L18.9611 21.1541C18.4716 21.1536 18.0023 20.9589 17.6562 20.6128C17.31 20.2667 17.1154 19.7972 17.1149 19.3077L17.1149 2.69232C17.1154 2.20284 17.31 1.73375 17.6562 1.38763C18.0023 1.04152 18.4716 0.846858 18.961 0.846368L22.6534 0.846368C23.1428 0.846858 23.6121 1.04152 23.9582 1.38763C24.3044 1.73375 24.499 2.20304 24.4995 2.69252ZM18.961 19.3077L22.6534 19.3079L22.6534 2.69252L18.961 2.69232L18.961 19.3077Z" fill="#42526E"/>
</svg>
