<svg width="25" height="24" viewBox="0 0 25 24" fill="none" xmlns="http://www.w3.org/2000/svg">
<mask id="mask0_31604_98" style="mask-type:alpha" maskUnits="userSpaceOnUse" x="0" y="0" width="25" height="24">
<rect x="0.499512" width="24" height="24" fill="#D9D9D9"/>
</mask>
<g mask="url(#mask0_31604_98)">
<path d="M2.84056 24.0151C2.19664 24.0151 1.6454 23.7858 1.18685 23.3273C0.728299 22.8687 0.499023 22.3175 0.499023 21.6736V5.28283C0.499023 4.63891 0.728299 4.08767 1.18685 3.62912C1.6454 3.17057 2.19664 2.9413 2.84056 2.9413H13.2897L10.9481 5.28283H2.84056V21.6736H19.2313V13.5367L21.5728 11.1952V21.6736C21.5728 22.3175 21.3436 22.8687 20.885 23.3273C20.4265 23.7858 19.8752 24.0151 19.2313 24.0151H2.84056ZM15.9239 3.61449L17.5922 5.25356L9.86516 12.9806V14.649H11.5042L19.2606 6.89264L20.9289 8.53171L13.1726 16.288C12.9579 16.5027 12.7092 16.6734 12.4262 16.8003C12.1433 16.9271 11.8457 16.9905 11.5335 16.9905H8.6944C8.36268 16.9905 8.08462 16.8783 7.86022 16.6539C7.63583 16.4295 7.52363 16.1515 7.52363 15.8197V12.9806C7.52363 12.6684 7.58217 12.3709 7.69924 12.0879C7.81632 11.805 7.98218 11.5562 8.19682 11.3416L15.9239 3.61449ZM20.9289 8.53171L15.9239 3.61449L18.8508 0.687568C19.3191 0.219261 19.8801 -0.0148926 20.5338 -0.0148926C21.1875 -0.0148926 21.7387 0.219261 22.1875 0.687568L23.8266 2.35591C24.2754 2.80471 24.4998 3.35106 24.4998 3.99499C24.4998 4.63891 24.2754 5.18527 23.8266 5.63406L20.9289 8.53171Z" fill="#42526E"/>
</g>
</svg>
