<svg width="23" height="22" viewBox="0 0 23 22" fill="none" xmlns="http://www.w3.org/2000/svg">
<path d="M20.4995 0H2.49951C1.39494 0 0.499512 0.89648 0.499512 2.00105C0.499512 2.02939 0.499512 2.04928 0.499512 2.05917V20.0592C0.499512 21.1311 1.36949 22 2.44138 22C2.4696 22 2.4895 22 2.49951 22H20.4995C20.5095 22 20.5294 22 20.5576 22C21.6295 22 22.4995 21.1311 22.4995 20.0592V2.05915C22.4995 2.04925 22.4995 2.02937 22.4995 2.00104C22.4995 0.896477 21.6041 0 20.4995 0ZM13.4995 20.0592H2.49951V12.0591H13.4995V20.0592ZM13.4995 10.0591H2.49951V2.05917L13.4995 2.05915V10.0591ZM20.4995 20.0592H15.4995V2.05917H20.4995V20.0592Z" fill="#42526E"/>
</svg>
