<svg width="460" height="460" viewBox="0 0 460 460" fill="none" xmlns="http://www.w3.org/2000/svg">
<g clip-path="url(#clip0_656_3695)">
<path d="M418.472 230C418.472 230.779 418.472 231.559 418.472 232.338C417.262 332.141 338.483 413.267 239.625 418.229C236.445 418.391 233.242 418.472 230.017 418.472H229.616C213.753 418.45 197.956 416.43 182.598 412.458C181.84 412.262 181.085 412.061 180.332 411.853C100.331 390.055 41.5273 316.889 41.5273 230C41.5273 125.908 125.908 41.5278 230 41.5278C312.821 41.5278 383.163 94.9475 408.463 169.208L408.888 170.537C414.944 188.785 418.164 207.854 418.438 227.078C418.46 228.049 418.472 229.023 418.472 230Z" fill="#4589FF"/>
<path d="M418.471 230C418.471 230.779 418.471 231.559 418.471 232.338C417.262 332.141 338.483 413.267 239.625 418.229L128.629 290.907L272.592 189.963L305.388 151.63L307.944 148.222L313.055 128.63L418.446 227.078C418.463 228.049 418.471 229.023 418.471 230Z" fill="#005DFF"/>
<path d="M322.273 164.407H137.727C131.527 164.407 126.5 169.434 126.5 175.635V284.365C126.5 290.566 131.527 295.593 137.727 295.593H322.273C328.473 295.593 333.5 290.566 333.5 284.365V175.635C333.5 169.434 328.473 164.407 322.273 164.407Z" fill="white"/>
<path d="M244.055 294.634L188.868 330.863C188.477 331.12 188.024 331.266 187.556 331.286C187.089 331.306 186.625 331.199 186.213 330.977C185.802 330.755 185.458 330.426 185.218 330.024C184.978 329.622 184.852 329.163 184.852 328.695V272.593L244.055 294.634Z" fill="white"/>
<path fill-rule="evenodd" clip-rule="evenodd" d="M147.797 196.778C147.797 195.602 148.75 194.648 149.927 194.648H304.444C305.62 194.648 306.574 195.602 306.574 196.778C306.574 197.954 305.62 198.907 304.444 198.907H149.927C148.75 198.907 147.797 197.954 147.797 196.778Z" fill="#42526E"/>
<path fill-rule="evenodd" clip-rule="evenodd" d="M147.797 263.222C147.797 262.046 148.75 261.093 149.927 261.093H259.815C260.992 261.093 261.945 262.046 261.945 263.222C261.945 264.398 260.992 265.352 259.815 265.352H149.927C148.75 265.352 147.797 264.398 147.797 263.222Z" fill="#42526E"/>
<path fill-rule="evenodd" clip-rule="evenodd" d="M147.797 230C147.797 228.824 148.75 227.87 149.927 227.87H278.982C280.158 227.87 281.112 228.824 281.112 230C281.112 231.176 280.158 232.13 278.982 232.13H149.927C148.75 232.13 147.797 231.176 147.797 230Z" fill="#42526E"/>
<path d="M308.152 150.848L286.4 136.331L221.17 234.066L242.922 248.584L308.152 150.848Z" fill="white"/>
<path fill-rule="evenodd" clip-rule="evenodd" d="M284.714 135.205C285.336 134.274 286.595 134.023 287.526 134.644L309.278 149.162C310.21 149.784 310.461 151.043 309.839 151.974L244.608 249.709C243.987 250.641 242.728 250.892 241.796 250.27L220.044 235.752C219.113 235.131 218.862 233.872 219.484 232.941L284.714 135.205ZM286.962 139.142L223.982 233.505L242.361 245.772L305.341 151.409L286.962 139.142Z" fill="#4589FF"/>
<path d="M305.25 122.996L312.815 128.1C314.691 129.365 315.986 131.323 316.418 133.544C316.849 135.765 316.381 138.066 315.115 139.941L306.891 152.13L285.185 137.485L293.409 125.296C294.674 123.421 296.633 122.125 298.853 121.693C301.074 121.262 303.375 121.731 305.25 122.996Z" fill="white"/>
<path fill-rule="evenodd" clip-rule="evenodd" d="M304.115 124.678C302.686 123.714 300.933 123.357 299.241 123.686C297.549 124.015 296.057 125.002 295.093 126.431L288.004 136.938L306.344 149.312L313.433 138.805C314.397 137.376 314.754 135.623 314.425 133.931C314.097 132.239 313.109 130.747 311.681 129.783L304.115 124.678ZM298.467 119.701C301.216 119.167 304.064 119.747 306.386 121.313L313.951 126.417C316.273 127.984 317.877 130.408 318.411 133.157C318.945 135.906 318.365 138.755 316.799 141.076L308.574 153.265C307.947 154.195 306.686 154.44 305.756 153.813L284.05 139.168C283.121 138.541 282.876 137.279 283.503 136.35L291.727 124.16C293.293 121.839 295.718 120.235 298.467 119.701Z" fill="#4589FF"/>
<path d="M219.547 255.628L221.174 234.063L242.926 248.579L223.636 258.375C223.188 258.603 222.688 258.707 222.187 258.677C221.685 258.646 221.201 258.483 220.784 258.203C220.367 257.923 220.033 257.536 219.815 257.084C219.598 256.631 219.505 256.128 219.547 255.628Z" fill="white"/>
<path fill-rule="evenodd" clip-rule="evenodd" d="M220.286 232.241C220.933 231.925 221.7 231.977 222.299 232.377L244.051 246.892C244.65 247.292 244.993 247.98 244.95 248.699C244.907 249.418 244.486 250.06 243.844 250.387L224.555 260.182C224.555 260.182 224.555 260.182 224.555 260.182C223.786 260.574 222.926 260.753 222.064 260.701C221.203 260.648 220.37 260.367 219.654 259.886C218.937 259.404 218.362 258.74 217.988 257.962C217.615 257.186 217.456 256.326 217.526 255.468L219.152 233.911C219.207 233.192 219.638 232.557 220.286 232.241ZM222.935 237.676L221.569 255.78L221.567 255.796C221.556 255.937 221.582 256.078 221.643 256.205C221.704 256.333 221.798 256.441 221.915 256.52C222.032 256.599 222.168 256.645 222.309 256.653C222.45 256.662 222.59 256.632 222.716 256.568L238.917 248.341L222.935 237.676Z" fill="#4589FF"/>
</g>
<defs>
<clipPath id="clip0_656_3695">
<rect width="460" height="460" fill="white"/>
</clipPath>
</defs>
</svg>
