<svg width="461" height="460" viewBox="0 0 461 460" fill="none" xmlns="http://www.w3.org/2000/svg">
<path d="M418.523 230C418.523 334.092 334.142 418.472 230.05 418.472C214.053 418.485 198.119 416.464 182.632 412.458C181.874 412.262 181.119 412.061 180.366 411.853C100.381 390.055 41.5781 316.889 41.5781 230C41.5781 125.908 125.958 41.5278 230.05 41.5278C312.872 41.5278 383.213 94.9475 408.513 169.208L408.939 170.537C415.306 189.715 418.542 209.793 418.523 230Z" fill="#4589FF"/>
<path d="M418.523 230C418.523 334.092 334.142 418.472 230.05 418.472C214.053 418.485 198.12 416.464 182.632 412.458C181.874 412.262 181.119 412.061 180.366 411.853L98.8652 339.463L361.236 120.537L408.939 170.537C415.306 189.715 418.542 209.793 418.523 230Z" fill="#005DFF"/>
<path d="M352.292 116.491H107.811C101.342 116.491 96.0977 121.735 96.0977 128.204V331.796C96.0977 338.265 101.342 343.509 107.811 343.509H352.292C358.761 343.509 364.005 338.265 364.005 331.796V128.204C364.005 121.735 358.761 116.491 352.292 116.491Z" fill="white"/>
<path fill-rule="evenodd" clip-rule="evenodd" d="M110.791 162.278C110.791 161.102 111.744 160.148 112.921 160.148H341.643C342.819 160.148 343.773 161.102 343.773 162.278C343.773 163.454 342.819 164.407 341.643 164.407H112.921C111.744 164.407 110.791 163.454 110.791 162.278Z" fill="#42526E"/>
<path fill-rule="evenodd" clip-rule="evenodd" d="M163.073 125.648C164.249 125.648 165.203 126.602 165.203 127.778V334.991C165.203 336.167 164.249 337.12 163.073 337.12C161.897 337.12 160.943 336.167 160.943 334.991V127.778C160.943 126.602 161.897 125.648 163.073 125.648Z" fill="#42526E"/>
<path fill-rule="evenodd" clip-rule="evenodd" d="M230.052 125.648C231.228 125.648 232.181 126.602 232.181 127.778V334.991C232.181 336.167 231.228 337.12 230.052 337.12C228.875 337.12 227.922 336.167 227.922 334.991V127.778C227.922 126.602 228.875 125.648 230.052 125.648Z" fill="#42526E"/>
<path fill-rule="evenodd" clip-rule="evenodd" d="M297.028 124.37C298.204 124.37 299.158 125.324 299.158 126.5V333.713C299.158 334.889 298.204 335.843 297.028 335.843C295.852 335.843 294.898 334.889 294.898 333.713V126.5C294.898 125.324 295.852 124.37 297.028 124.37Z" fill="#42526E"/>
<path fill-rule="evenodd" clip-rule="evenodd" d="M115 141.833C115 140.657 115.953 139.704 117.13 139.704H142.046C143.222 139.704 144.176 140.657 144.176 141.833C144.176 143.009 143.222 143.963 142.046 143.963H117.13C115.953 143.963 115 143.009 115 141.833Z" fill="#42526E"/>
<path fill-rule="evenodd" clip-rule="evenodd" d="M315.93 141.833C315.93 140.657 316.883 139.704 318.059 139.704H342.976C344.152 139.704 345.106 140.657 345.106 141.833C345.106 143.009 344.152 143.963 342.976 143.963H318.059C316.883 143.963 315.93 143.009 315.93 141.833Z" fill="#42526E"/>
<path fill-rule="evenodd" clip-rule="evenodd" d="M248.953 141.833C248.953 140.657 249.907 139.704 251.083 139.704H275.999C277.176 139.704 278.129 140.657 278.129 141.833C278.129 143.009 277.176 143.963 275.999 143.963H251.083C249.907 143.963 248.953 143.009 248.953 141.833Z" fill="#42526E"/>
<path fill-rule="evenodd" clip-rule="evenodd" d="M181.977 141.833C181.977 140.657 182.93 139.704 184.106 139.704H209.023C210.199 139.704 211.152 140.657 211.152 141.833C211.152 143.009 210.199 143.963 209.023 143.963H184.106C182.93 143.963 181.977 143.009 181.977 141.833Z" fill="#42526E"/>
<path d="M209.896 235.111H182.91C180.011 235.111 177.662 237.46 177.662 240.358V267.345C177.662 270.243 180.011 272.593 182.91 272.593H209.896C212.794 272.593 215.144 270.243 215.144 267.345V240.358C215.144 237.46 212.794 235.111 209.896 235.111Z" fill="white"/>
<path fill-rule="evenodd" clip-rule="evenodd" d="M182.91 237.241C181.188 237.241 179.792 238.637 179.792 240.358V267.345C179.792 269.067 181.188 270.463 182.91 270.463H209.897C211.619 270.463 213.015 269.067 213.015 267.345V240.358C213.015 238.637 211.619 237.241 209.897 237.241H182.91ZM175.533 240.358C175.533 236.284 178.836 232.981 182.91 232.981H209.897C213.971 232.981 217.274 236.284 217.274 240.358V267.345C217.274 271.419 213.971 274.722 209.897 274.722H182.91C178.836 274.722 175.533 271.419 175.533 267.345V240.358Z" fill="#42526E"/>
<path d="M209.896 184.852H182.91C180.011 184.852 177.662 187.201 177.662 190.099V217.086C177.662 219.984 180.011 222.333 182.91 222.333H209.896C212.794 222.333 215.144 219.984 215.144 217.086V190.099C215.144 187.201 212.794 184.852 209.896 184.852Z" fill="white"/>
<path fill-rule="evenodd" clip-rule="evenodd" d="M182.91 186.981C181.188 186.981 179.792 188.377 179.792 190.099V217.086C179.792 218.808 181.188 220.204 182.91 220.204H209.897C211.619 220.204 213.015 218.808 213.015 217.086V190.099C213.015 188.377 211.619 186.981 209.897 186.981H182.91ZM175.533 190.099C175.533 186.025 178.836 182.722 182.91 182.722H209.897C213.971 182.722 217.274 186.025 217.274 190.099V217.086C217.274 221.16 213.971 224.463 209.897 224.463H182.91C178.836 224.463 175.533 221.16 175.533 217.086V190.099Z" fill="#42526E"/>
<path fill-rule="evenodd" clip-rule="evenodd" d="M317.076 186.981C315.354 186.981 313.958 188.377 313.958 190.099V217.086C313.958 218.808 315.354 220.204 317.076 220.204H344.063C345.785 220.204 347.181 218.808 347.181 217.086V190.099C347.181 188.377 345.785 186.981 344.063 186.981H317.076ZM309.699 190.099C309.699 186.025 313.002 182.722 317.076 182.722H344.063C348.137 182.722 351.44 186.025 351.44 190.099V217.086C351.44 221.16 348.137 224.463 344.063 224.463H317.076C313.002 224.463 309.699 221.16 309.699 217.086V190.099Z" fill="#42526E"/>
<path fill-rule="evenodd" clip-rule="evenodd" d="M118.168 186.981C116.446 186.981 115.05 188.377 115.05 190.099V217.086C115.05 218.808 116.446 220.204 118.168 220.204H145.155C146.877 220.204 148.272 218.808 148.272 217.086V190.099C148.272 188.377 146.877 186.981 145.155 186.981H118.168ZM110.791 190.099C110.791 186.025 114.094 182.722 118.168 182.722H145.155C149.229 182.722 152.532 186.025 152.532 190.099V217.086C152.532 221.16 149.229 224.463 145.155 224.463H118.168C114.094 224.463 110.791 221.16 110.791 217.086V190.099Z" fill="#42526E"/>
</svg>
