<svg width="460" height="460" viewBox="0 0 460 460" fill="none" xmlns="http://www.w3.org/2000/svg">
<path d="M417.609 230C417.619 244.499 415.963 258.951 412.674 273.07C396.947 340.558 344.998 394.101 278.495 412.019C246.97 420.468 213.802 420.614 182.204 412.445C181.448 412.249 180.694 412.048 179.943 411.841C100.124 390.054 41.4414 316.889 41.4414 230C41.4414 125.908 125.648 41.5278 229.525 41.5278C312.176 41.5278 382.372 94.9475 407.62 169.208L408.045 170.537C414.399 189.715 417.628 209.793 417.609 230Z" fill="#4589FF"/>
<path d="M412.675 273.07C396.948 340.558 344.999 394.101 278.496 412.019C258.156 392.796 237.826 373.563 217.506 354.319C205.321 342.822 193.147 331.308 180.985 319.777C179.311 318.422 177.98 316.68 178.01 314.32V279.475C164.749 266.936 151.48 254.39 138.204 241.836C80.6784 191.709 158.904 117.24 207.776 176.214L230.674 197.868C240.696 186.257 250.017 200.662 257.622 207.183C267.865 216.857 278.103 226.54 288.335 236.231C299.106 236.483 302.953 234.736 308.938 239.298L240.08 171.001L277.229 174.898L271.606 139.704L412.675 273.07Z" fill="#005DFF"/>
<path d="M199.888 236.167H184.169C180.763 236.167 178.002 238.934 178.002 242.348V314.321C178.002 317.734 180.763 320.501 184.169 320.501H199.888C203.294 320.501 206.055 317.734 206.055 314.321V242.348C206.055 238.934 203.294 236.167 199.888 236.167Z" fill="white"/>
<path d="M229.393 320.501C252.612 320.501 271.434 301.639 271.434 278.372C271.434 255.106 252.612 236.244 229.393 236.244C206.174 236.244 187.352 255.106 187.352 278.372C187.352 301.639 206.174 320.501 229.393 320.501Z" fill="white"/>
<path d="M295.323 320.488H232.191C229.403 320.488 226.73 319.378 224.758 317.403C222.787 315.427 221.68 312.748 221.68 309.955C221.68 307.161 222.787 304.482 224.758 302.507C226.73 300.531 229.403 299.422 232.191 299.422H295.323C298.111 299.422 300.785 300.531 302.756 302.507C304.727 304.482 305.835 307.161 305.835 309.955C305.835 312.748 304.727 315.427 302.756 317.403C300.785 319.378 298.111 320.488 295.323 320.488Z" fill="white"/>
<path d="M301.49 299.426H238.354C236.956 299.454 235.566 299.203 234.267 298.686C232.967 298.169 231.783 297.398 230.785 296.418C229.786 295.437 228.993 294.266 228.451 292.975C227.91 291.683 227.631 290.296 227.631 288.895C227.631 287.494 227.91 286.107 228.451 284.815C228.993 283.524 229.786 282.353 230.785 281.372C231.783 280.392 232.967 279.621 234.267 279.104C235.566 278.587 236.956 278.336 238.354 278.364H301.49C302.888 278.336 304.278 278.587 305.577 279.104C306.877 279.621 308.061 280.392 309.059 281.372C310.058 282.353 310.851 283.524 311.393 284.815C311.934 286.107 312.213 287.494 312.213 288.895C312.213 290.296 311.934 291.683 311.393 292.975C310.851 294.266 310.058 295.437 309.059 296.418C308.061 297.398 306.877 298.169 305.577 298.686C304.278 299.203 302.888 299.454 301.49 299.426Z" fill="white"/>
<path d="M308.427 278.36H245.291C242.503 278.36 239.829 277.25 237.858 275.275C235.887 273.299 234.779 270.62 234.779 267.827C234.779 265.033 235.887 262.354 237.858 260.379C239.829 258.403 242.503 257.293 245.291 257.293H308.427C311.215 257.293 313.889 258.403 315.86 260.379C317.831 262.354 318.939 265.033 318.939 267.827C318.939 270.62 317.831 273.299 315.86 275.275C313.889 277.25 311.215 278.36 308.427 278.36Z" fill="white"/>
<path d="M301.49 257.293H238.354C236.956 257.322 235.566 257.07 234.267 256.553C232.967 256.037 231.783 255.266 230.785 254.285C229.786 253.304 228.993 252.134 228.451 250.842C227.91 249.55 227.631 248.163 227.631 246.762C227.631 245.361 227.91 243.974 228.451 242.683C228.993 241.391 229.786 240.221 230.785 239.24C231.783 238.259 232.967 237.488 234.267 236.971C235.566 236.455 236.956 236.203 238.354 236.231H301.49C302.888 236.203 304.278 236.455 305.577 236.971C306.877 237.488 308.061 238.259 309.059 239.24C310.058 240.221 310.851 241.391 311.393 242.683C311.934 243.974 312.213 245.361 312.213 246.762C312.213 248.163 311.934 249.55 311.393 250.842C310.851 252.134 310.058 253.304 309.059 254.285C308.061 255.266 306.877 256.037 305.577 256.553C304.278 257.07 302.888 257.322 301.49 257.293Z" fill="white"/>
<path d="M237.938 254.154C232.65 255.355 228.884 250.321 224.153 248.805C221.446 247.923 218.853 248.076 216.554 246.002C215.385 244.946 214.569 243.387 214.768 241.824C214.968 240.261 216.133 238.97 217.45 238.101C226.257 232.262 230.924 226.035 230.801 215.007C230.75 210.441 228.187 204.048 229.649 199.844C231.018 195.913 235.472 193.4 239.493 193.583C250.145 194.077 253.478 209.096 253.384 217.529C253.303 225.225 250.528 232.585 247.174 239.404C245.597 242.607 243.438 245.708 242.21 249.035C241.27 251.56 241.049 253.447 237.938 254.154Z" fill="white"/>
<path d="M319.118 232.521C330.02 232.521 338.857 223.666 338.857 212.741C338.857 201.817 330.02 192.961 319.118 192.961C308.216 192.961 299.379 201.817 299.379 212.741C299.379 223.666 308.216 232.521 319.118 232.521Z" fill="white"/>
<path d="M271.513 202.502C288.875 202.502 302.949 188.399 302.949 171.001C302.949 153.603 288.875 139.499 271.513 139.499C254.151 139.499 240.076 153.603 240.076 171.001C240.076 188.399 254.151 202.502 271.513 202.502Z" fill="white"/>
<path fill-rule="evenodd" clip-rule="evenodd" d="M318.97 265.697C320.144 265.715 321.081 266.682 321.064 267.858C320.972 274.01 317.413 277.415 314.049 279.173C312.396 280.037 310.771 280.522 309.573 280.793C308.97 280.93 308.463 281.015 308.099 281.066C307.917 281.092 307.77 281.109 307.664 281.121C307.611 281.126 307.568 281.13 307.536 281.133C307.52 281.135 307.506 281.136 307.496 281.137L307.482 281.138L307.477 281.139L307.475 281.139C307.474 281.139 307.473 281.139 307.309 279.015L307.473 281.139C307.418 281.143 307.364 281.145 307.309 281.145H265.098C263.924 281.145 262.973 280.192 262.973 279.015C262.973 277.839 263.924 276.886 265.098 276.886H307.209C307.21 276.886 307.211 276.886 307.213 276.885C307.275 276.879 307.374 276.867 307.506 276.849C307.771 276.811 308.162 276.746 308.637 276.639C309.595 276.422 310.849 276.042 312.084 275.396C314.497 274.135 316.752 271.946 316.814 267.795C316.831 266.619 317.797 265.68 318.97 265.697Z" fill="#42526E"/>
<path fill-rule="evenodd" clip-rule="evenodd" d="M206.153 245.538C207.326 245.538 208.278 246.491 208.278 247.667V309.001C208.278 310.177 207.326 311.13 206.153 311.13C204.979 311.13 204.027 310.177 204.027 309.001V247.667C204.027 246.491 204.979 245.538 206.153 245.538Z" fill="#42526E"/>
<path fill-rule="evenodd" clip-rule="evenodd" d="M305.528 307.595C306.701 307.595 307.653 308.549 307.653 309.725C307.653 312.737 306.887 315.138 305.631 317.01C304.385 318.868 302.74 320.081 301.162 320.868C299.592 321.652 298.048 322.035 296.914 322.227C296.342 322.323 295.861 322.372 295.515 322.398C295.341 322.411 295.2 322.418 295.098 322.422C295.046 322.423 295.005 322.425 294.973 322.425C294.957 322.425 294.944 322.426 294.933 322.426L294.919 322.426L294.913 322.426L294.911 322.426C294.909 322.426 294.908 322.426 294.902 320.296L294.908 322.426L294.902 322.426H256.303C255.129 322.426 254.178 321.472 254.178 320.296C254.178 319.12 255.129 318.167 256.303 318.167H294.89C294.89 318.167 294.891 318.167 294.891 318.167C294.9 318.167 294.918 318.166 294.944 318.165C294.997 318.163 295.085 318.159 295.202 318.15C295.436 318.133 295.785 318.098 296.21 318.026C297.068 317.882 298.181 317.598 299.267 317.056C300.346 316.517 301.358 315.746 302.104 314.634C302.84 313.536 303.403 311.982 303.403 309.725C303.403 308.549 304.354 307.595 305.528 307.595Z" fill="#42526E"/>
<path fill-rule="evenodd" clip-rule="evenodd" d="M311.985 286.763C313.158 286.763 314.11 287.717 314.11 288.893C314.11 291.904 313.344 294.304 312.088 296.176C310.841 298.033 309.196 299.246 307.619 300.033C306.049 300.816 304.505 301.199 303.371 301.39C302.799 301.487 302.318 301.536 301.971 301.562C301.798 301.575 301.657 301.582 301.554 301.585C301.503 301.587 301.461 301.588 301.43 301.589C301.414 301.589 301.4 301.589 301.39 301.589L301.375 301.59L301.37 301.59L301.367 301.59C301.366 301.59 301.365 301.59 301.358 299.46L301.365 301.59L301.358 301.59H258.084C256.91 301.59 255.959 300.636 255.959 299.46C255.959 298.284 256.91 297.33 258.084 297.33H301.347C301.347 297.33 301.348 297.33 301.348 297.33C301.357 297.33 301.374 297.33 301.401 297.329C301.454 297.327 301.541 297.323 301.658 297.314C301.893 297.297 302.242 297.261 302.666 297.19C303.525 297.045 304.638 296.762 305.724 296.22C306.803 295.682 307.815 294.911 308.561 293.799C309.297 292.702 309.859 291.149 309.859 288.893C309.859 287.717 310.811 286.763 311.985 286.763Z" fill="#42526E"/>
<path fill-rule="evenodd" clip-rule="evenodd" d="M312.145 244.637C313.315 244.725 314.192 245.748 314.104 246.921C313.635 253.118 310.493 256.386 307.318 257.981C305.791 258.748 304.312 259.104 303.227 259.271C302.68 259.356 302.221 259.394 301.889 259.411C301.723 259.419 301.588 259.422 301.488 259.423C301.439 259.424 301.398 259.424 301.366 259.423C301.356 259.423 301.347 259.423 301.339 259.423H258.084C256.91 259.423 255.959 258.469 255.959 257.293C255.959 256.117 256.91 255.164 258.084 255.164H301.358C301.374 255.164 301.39 255.164 301.405 255.164C301.408 255.164 301.411 255.164 301.414 255.164L301.412 255.164L301.409 255.164L301.407 255.164C301.412 255.164 301.427 255.164 301.449 255.164C301.493 255.164 301.57 255.162 301.673 255.157C301.881 255.146 302.195 255.121 302.581 255.062C303.36 254.941 304.386 254.689 305.413 254.173C307.347 253.202 309.518 251.203 309.865 246.599C309.954 245.427 310.975 244.548 312.145 244.637Z" fill="#42526E"/>
<path d="M165.888 248.093C191.123 248.093 211.581 227.594 211.581 202.306C211.581 177.019 191.123 156.519 165.888 156.519C140.653 156.519 120.195 177.019 120.195 202.306C120.195 227.594 140.653 248.093 165.888 248.093Z" fill="white"/>
<path fill-rule="evenodd" clip-rule="evenodd" d="M165.888 158.649C141.827 158.649 122.321 178.195 122.321 202.306C122.321 226.418 141.827 245.964 165.888 245.964C189.95 245.964 209.456 226.418 209.456 202.306C209.456 178.195 189.95 158.649 165.888 158.649ZM118.07 202.306C118.07 175.843 139.479 154.39 165.888 154.39C192.297 154.39 213.706 175.843 213.706 202.306C213.706 228.77 192.297 250.223 165.888 250.223C139.479 250.223 118.07 228.77 118.07 202.306Z" fill="#42526E"/>
<path fill-rule="evenodd" clip-rule="evenodd" d="M183.258 180.404C184.292 180.961 184.679 182.252 184.123 183.288L162.552 223.483C162.212 224.116 161.576 224.535 160.861 224.596C160.146 224.657 159.448 224.352 159.006 223.786L147.424 208.942C146.701 208.016 146.864 206.677 147.789 205.953C148.714 205.228 150.049 205.392 150.772 206.319L160.35 218.593L180.38 181.271C180.936 180.235 182.225 179.847 183.258 180.404Z" fill="#42526E"/>
</svg>
