<svg width="461" height="460" viewBox="0 0 461 460" fill="none" xmlns="http://www.w3.org/2000/svg">
<path d="M418.523 230C418.525 236.326 418.208 242.647 417.573 248.941C417.539 249.367 417.496 249.754 417.453 250.159C412.645 295.052 391.872 336.725 358.917 367.588C325.963 398.451 283.02 416.451 237.909 418.31C235.302 418.418 232.683 418.472 230.05 418.472C223.823 418.472 217.672 418.176 211.595 417.582C201.822 416.637 192.138 414.928 182.632 412.471C181.874 412.275 181.119 412.073 180.366 411.866C100.381 390.054 41.5781 316.889 41.5781 230C41.5781 125.908 125.958 41.5278 230.05 41.5278C312.872 41.5278 383.213 94.9475 408.513 169.208L408.939 170.537C414.39 186.96 417.544 204.058 418.31 221.345C418.454 224.213 418.525 227.098 418.523 230Z" fill="#4589FF"/>
<path d="M417.574 248.941C417.54 249.367 417.497 249.754 417.455 250.159C412.646 295.052 391.873 336.725 358.919 367.588C325.964 398.451 283.021 416.451 237.91 418.31L151.805 326.975L308.298 133.025L417.574 248.941Z" fill="#005DFF"/>
<path d="M308.298 133.025V297.296C281.465 319.832 259.785 325.752 255.364 326.775H255.322C255.069 326.865 254.806 326.923 254.538 326.945H151.805V133.025H308.298Z" fill="white"/>
<path d="M255.321 326.804C255.068 326.895 254.805 326.953 254.537 326.975C254.537 326.975 254.801 326.924 255.321 326.804Z" fill="#E6E6E6"/>
<path d="M193.311 158.389H171.448C168.971 158.389 166.963 160.397 166.963 162.874V184.737C166.963 187.214 168.971 189.222 171.448 189.222H193.311C195.788 189.222 197.796 187.214 197.796 184.737V162.874C197.796 160.397 195.788 158.389 193.311 158.389Z" fill="white"/>
<path fill-rule="evenodd" clip-rule="evenodd" d="M171.447 160.761C170.28 160.761 169.335 161.707 169.335 162.874V184.737C169.335 185.904 170.28 186.849 171.447 186.849H193.31C194.477 186.849 195.423 185.904 195.423 184.737V162.874C195.423 161.707 194.477 160.761 193.31 160.761H171.447ZM164.59 162.874C164.59 159.087 167.66 156.017 171.447 156.017H193.31C197.097 156.017 200.167 159.087 200.167 162.874V184.737C200.167 188.524 197.097 191.594 193.31 191.594H171.447C167.66 191.594 164.59 188.524 164.59 184.737V162.874Z" fill="#42526E"/>
<path d="M193.311 214.586H171.448C168.971 214.586 166.963 216.594 166.963 219.071V240.933C166.963 243.41 168.971 245.418 171.448 245.418H193.311C195.788 245.418 197.796 243.41 197.796 240.933V219.071C197.796 216.594 195.788 214.586 193.311 214.586Z" fill="white"/>
<path fill-rule="evenodd" clip-rule="evenodd" d="M171.447 216.958C170.281 216.958 169.335 217.904 169.335 219.071V240.934C169.335 242.1 170.281 243.046 171.447 243.046H193.31C194.477 243.046 195.423 242.1 195.423 240.934V219.071C195.423 217.904 194.477 216.958 193.31 216.958H171.447ZM164.59 219.071C164.59 215.284 167.66 212.213 171.447 212.213H193.31C197.097 212.213 200.167 215.284 200.167 219.071V240.934C200.167 244.721 197.097 247.791 193.31 247.791H171.447C167.66 247.791 164.59 244.721 164.59 240.934V219.071Z" fill="#42526E"/>
<path d="M193.311 270.778H171.448C168.971 270.778 166.963 272.786 166.963 275.263V297.126C166.963 299.603 168.971 301.611 171.448 301.611H193.311C195.788 301.611 197.796 299.603 197.796 297.126V275.263C197.796 272.786 195.788 270.778 193.311 270.778Z" fill="white"/>
<path fill-rule="evenodd" clip-rule="evenodd" d="M171.447 273.151C170.281 273.151 169.335 274.096 169.335 275.263V297.126C169.335 298.293 170.281 299.239 171.447 299.239H193.31C194.477 299.239 195.423 298.293 195.423 297.126V275.263C195.423 274.096 194.477 273.151 193.31 273.151H171.447ZM164.59 275.263C164.59 271.476 167.66 268.406 171.447 268.406H193.31C197.097 268.406 200.167 271.476 200.167 275.263V297.126C200.167 300.913 197.097 303.983 193.31 303.983H171.447C167.66 303.983 164.59 300.913 164.59 297.126V275.263Z" fill="#42526E"/>
<path fill-rule="evenodd" clip-rule="evenodd" d="M207.758 173.974C207.758 172.663 208.82 171.601 210.13 171.601H287.197C288.507 171.601 289.57 172.663 289.57 173.974C289.57 175.284 288.507 176.346 287.197 176.346H210.13C208.82 176.346 207.758 175.284 207.758 173.974Z" fill="#42526E"/>
<path fill-rule="evenodd" clip-rule="evenodd" d="M217.826 189.15C217.826 187.839 218.888 186.777 220.199 186.777H277.124C278.434 186.777 279.496 187.839 279.496 189.15C279.496 190.46 278.434 191.522 277.124 191.522H220.199C218.888 191.522 217.826 190.46 217.826 189.15Z" fill="#42526E"/>
<path fill-rule="evenodd" clip-rule="evenodd" d="M217.717 245.598C217.717 244.287 218.779 243.225 220.089 243.225H277.01C278.32 243.225 279.382 244.287 279.382 245.598C279.382 246.908 278.32 247.97 277.01 247.97H220.089C218.779 247.97 217.717 246.908 217.717 245.598Z" fill="#42526E"/>
<path fill-rule="evenodd" clip-rule="evenodd" d="M217.717 301.573C217.717 300.262 218.779 299.2 220.089 299.2H277.01C278.32 299.2 279.382 300.262 279.382 301.573C279.382 302.883 278.32 303.945 277.01 303.945H220.089C218.779 303.945 217.717 302.883 217.717 301.573Z" fill="#42526E"/>
<path fill-rule="evenodd" clip-rule="evenodd" d="M207.758 229.945C207.758 228.634 208.82 227.572 210.13 227.572H287.197C288.507 227.572 289.57 228.634 289.57 229.945C289.57 231.255 288.507 232.317 287.197 232.317H210.13C208.82 232.317 207.758 231.255 207.758 229.945Z" fill="#42526E"/>
<path fill-rule="evenodd" clip-rule="evenodd" d="M207.758 288.288C207.758 286.978 208.82 285.916 210.13 285.916H287.197C288.507 285.916 289.57 286.978 289.57 288.288C289.57 289.598 288.507 290.66 287.197 290.66H210.13C208.82 290.66 207.758 289.598 207.758 288.288Z" fill="#42526E"/>
<path d="M308.297 297.296C278.67 327.017 259.784 325.752 255.363 326.775C260.359 325.143 269.657 307.57 273.452 288.122C273.452 288.139 291.005 303.319 308.297 297.296Z" fill="#E6E6E6"/>
<path d="M293.136 171.528L271.43 156.883L205.627 254.412L227.333 269.057L293.136 171.528Z" fill="white"/>
<path fill-rule="evenodd" clip-rule="evenodd" d="M269.747 155.748C270.374 154.818 271.636 154.573 272.566 155.2L294.272 169.845C295.201 170.472 295.446 171.734 294.819 172.663L229.017 270.192C228.389 271.121 227.128 271.367 226.198 270.74L204.492 256.094C203.563 255.467 203.318 254.206 203.945 253.276L269.747 155.748ZM271.978 159.701L208.446 253.864L226.786 266.239L290.318 172.075L271.978 159.701Z" fill="#4589FF"/>
<path d="M291.373 142.564L298.938 147.668C300.814 148.933 302.109 150.892 302.541 153.112C302.972 155.333 302.504 157.634 301.238 159.509L293.014 171.698L271.308 157.053L279.53 144.867C280.156 143.938 280.959 143.142 281.893 142.523C282.828 141.904 283.875 141.476 284.974 141.262C286.074 141.048 287.205 141.053 288.303 141.276C289.401 141.5 290.444 141.937 291.373 142.564Z" fill="white"/>
<path fill-rule="evenodd" clip-rule="evenodd" d="M290.238 144.247C289.531 143.769 288.736 143.436 287.899 143.266C287.062 143.095 286.2 143.092 285.362 143.255C284.524 143.418 283.727 143.744 283.015 144.216C282.303 144.687 281.691 145.294 281.214 146.002L274.127 156.506L292.467 168.88L299.556 158.374C300.52 156.945 300.877 155.192 300.549 153.499C300.22 151.807 299.232 150.315 297.804 149.351L290.238 144.247ZM292.509 140.881L300.074 145.986C302.396 147.552 304 149.976 304.534 152.725C305.068 155.474 304.488 158.323 302.922 160.644L294.698 172.834C294.071 173.763 292.809 174.008 291.879 173.381L270.173 158.736C269.244 158.109 268.999 156.847 269.626 155.918L277.847 143.733C277.847 143.733 277.847 143.733 277.847 143.733C277.847 143.733 277.848 143.732 277.848 143.732C278.623 142.582 279.617 141.596 280.773 140.831C281.93 140.065 283.226 139.534 284.587 139.27C285.949 139.005 287.349 139.011 288.708 139.287C290.068 139.564 291.359 140.106 292.509 140.881Z" fill="#4589FF"/>
<path d="M205.744 275.302L207.371 253.733L229.123 268.252L209.832 278.049C209.385 278.275 208.885 278.378 208.384 278.347C207.883 278.316 207.4 278.152 206.983 277.873C206.567 277.593 206.233 277.207 206.015 276.755C205.797 276.303 205.703 275.802 205.744 275.302Z" fill="white"/>
<path fill-rule="evenodd" clip-rule="evenodd" d="M206.482 251.91C207.13 251.594 207.897 251.646 208.496 252.046L230.248 266.566C230.847 266.966 231.189 267.654 231.147 268.373C231.104 269.092 230.683 269.734 230.041 270.06L210.747 279.858C209.978 280.247 209.119 280.424 208.259 280.371C207.399 280.317 206.568 280.036 205.853 279.555C205.137 279.075 204.563 278.412 204.189 277.636C203.815 276.861 203.654 276.001 203.722 275.144L205.349 253.58C205.403 252.861 205.835 252.226 206.482 251.91ZM205.744 275.301L207.764 275.464C207.753 275.605 207.779 275.747 207.841 275.874C207.902 276.002 207.997 276.111 208.114 276.19C208.232 276.269 208.368 276.315 208.509 276.323C208.65 276.332 208.791 276.303 208.917 276.24C208.917 276.24 208.917 276.239 208.918 276.239L225.114 268.014L209.131 257.345L207.765 275.454L205.744 275.301Z" fill="#4589FF"/>
</svg>
