<svg width="460" height="460" viewBox="0 0 460 460" fill="none" xmlns="http://www.w3.org/2000/svg">
<path d="M418.472 230C418.472 230.852 418.472 231.657 418.472 232.483C418.472 233.054 418.472 233.62 418.442 234.187C416.487 323.823 351.959 398.032 266.812 414.873C262.417 415.748 257.966 416.458 253.46 417.003C229.766 419.945 205.731 418.396 182.611 412.437C181.853 412.241 181.098 412.039 180.345 411.832C100.331 390.055 41.5273 316.889 41.5273 230C41.5273 125.908 125.908 41.5278 230 41.5278C312.821 41.5278 383.163 94.9475 408.463 169.208L408.888 170.537C415.255 189.715 418.491 209.793 418.472 230Z" fill="#4589FF"/>
<path d="M417.152 231.299C416.581 230.762 416.002 230.23 415.414 229.71C414.827 229.191 414.26 228.641 413.677 228.117C413.093 227.594 412.522 227.048 411.939 226.525C411.355 226.001 410.784 225.455 410.197 224.932C409.609 224.408 409.047 223.862 408.459 223.343C407.871 222.823 407.305 222.274 406.721 221.75C406.138 221.226 405.567 220.681 404.979 220.157C404.391 219.633 403.829 219.088 403.241 218.564C402.654 218.04 402.087 217.495 401.504 216.975C400.92 216.456 400.349 215.906 399.762 215.382C399.174 214.858 398.612 214.313 398.024 213.789C397.436 213.265 396.874 212.72 396.286 212.196C395.698 211.672 395.132 211.127 394.548 210.608C393.965 210.088 393.394 209.539 392.806 209.015C392.218 208.491 391.656 207.946 391.068 207.422C390.481 206.898 389.914 206.353 389.331 205.829C388.747 205.305 388.176 204.76 387.589 204.24C387.001 203.72 386.439 203.171 385.851 202.647C385.263 202.123 384.697 201.578 384.113 201.054C383.53 200.53 382.959 199.985 382.375 199.461C381.792 198.937 381.221 198.392 380.633 197.872C380.045 197.353 379.483 196.803 378.895 196.28C378.308 195.756 377.741 195.21 377.158 194.687C376.574 194.163 376.003 193.617 375.416 193.094C374.828 192.57 374.266 192.025 373.678 191.505C373.09 190.985 372.524 190.436 371.94 189.912C371.357 189.388 370.786 188.843 370.198 188.319C369.61 187.795 369.048 187.25 368.46 186.726C367.872 186.202 367.31 185.657 366.722 185.133C366.135 184.609 365.568 184.068 364.985 183.544C364.401 183.02 363.83 182.475 363.243 181.951C362.655 181.427 362.093 180.882 361.505 180.358C360.917 179.835 360.351 179.289 359.767 178.765C359.184 178.242 358.613 177.701 358.025 177.177C357.437 176.653 356.875 176.108 356.287 175.584C355.699 175.06 355.133 174.515 354.549 173.991C353.966 173.467 353.395 172.922 352.807 172.398C352.22 171.874 351.657 171.333 351.07 170.809C350.482 170.285 349.92 169.74 349.332 169.216C348.744 168.692 348.178 168.147 347.59 167.623C347.002 167.099 346.44 166.554 345.852 166.03C345.264 165.506 344.702 164.965 344.114 164.442C328.345 149.615 307.759 140.972 286.132 140.096C264.505 139.221 243.287 146.172 226.371 159.675C226.094 159.404 225.796 159.153 225.481 158.926L223.892 157.124L220.715 153.521L219.126 151.719L217.538 149.926L214.36 146.323L212.776 144.521C212.776 144.521 210.625 142.059 208.917 142.059H162.704C161.574 142.059 160.491 142.508 159.692 143.307C158.893 144.105 158.445 145.189 158.445 146.318C158.445 147.801 160.344 149.866 160.344 149.866L161.869 151.664L163.394 153.461L164.914 155.259L166.439 157.056L167.964 158.853L169.485 160.651L171.009 162.448L172.53 164.246L174.055 166.047L175.58 167.845L177.1 169.642L178.625 171.44L180.167 173.224L181.687 175.022L183.212 176.819L184.737 178.616L186.258 180.418L187.782 182.215L189.303 184.013L190.828 185.81L192.353 187.608L193.873 189.405L195.398 191.202L196.923 193L198.443 194.797C198.665 195.204 198.921 195.59 199.21 195.952C198.395 197.939 197.653 199.955 196.982 202C196.647 201.679 196.281 201.394 195.888 201.148L194.193 199.333L192.519 197.536L189.162 193.933L187.459 192.135L185.781 190.334L184.098 188.532L182.42 186.735C182.42 186.735 180.584 184.532 179.089 184.532H170.988C170.669 183.855 169.51 182.918 169.51 182.918L167.947 181.112L166.384 179.315L164.834 177.505L163.27 175.703L161.707 173.897L160.148 172.095L158.585 170.29L157.026 168.488L155.463 166.682L153.9 164.88L152.341 163.074C152.341 163.074 150.505 160.787 148.976 160.787H137.421C136.461 160.787 135.54 161.169 134.861 161.847C134.182 162.526 133.801 163.447 133.801 164.407C133.801 165.745 135.611 167.538 135.611 167.538L137.148 169.348L138.707 171.154L140.262 172.964L141.817 174.77L143.375 176.58L144.93 178.386L146.489 180.197L148.044 182.002L149.598 183.813C149.711 184.06 149.839 184.301 149.982 184.532H118.834C117.874 184.534 116.954 184.915 116.275 185.594C115.596 186.273 115.214 187.193 115.213 188.153C115.213 189.499 117.036 191.292 117.036 191.292L118.599 193.094L120.162 194.891L121.726 196.693L123.289 198.494L124.852 200.292L126.415 202.093L127.978 203.891L129.541 205.692L131.104 207.494L132.668 209.292L134.231 211.093L135.794 212.895L137.357 214.692L138.92 216.494L140.483 218.296L142.047 220.093L143.61 221.895L145.173 223.696L146.736 225.494C146.883 225.801 147.052 226.097 147.243 226.38H144.099C143.783 226.186 143.453 226.015 143.111 225.869L141.046 224.263L138.984 222.661L136.918 221.056L134.857 219.454L132.791 217.848L130.73 216.247L128.668 214.667L126.602 213.061L124.541 211.46L122.475 209.858L120.414 208.252L118.348 206.651L116.278 205.032C116.278 205.032 114.221 203.167 112.756 203.167H101.217C100.088 203.167 99.0043 203.615 98.2055 204.414C97.4067 205.213 96.958 206.296 96.958 207.426C96.958 209.27 99.7691 211.425 99.7691 211.425L101.835 213.027L103.926 214.624L105.992 216.221L108.062 217.819L110.128 219.416L112.193 221.013L114.263 222.61L116.329 224.207C116.329 224.207 117.552 225.485 118.395 225.805C118.526 226.007 118.673 226.2 118.834 226.38H83.4817C82.5219 226.381 81.6017 226.763 80.923 227.441C80.2442 228.12 79.8625 229.04 79.8613 230C79.8613 231.704 82.6639 233.522 82.6639 233.522L84.67 234.8L86.6761 236.078L88.6823 237.356L90.6926 238.634L92.6987 239.911L94.7049 241.189L96.7152 242.467L98.7213 243.745L100.727 245.022L102.738 246.3L104.744 247.578L106.75 248.856C106.75 248.856 106.895 249.026 106.976 249.107C106.055 249.162 105.19 249.567 104.556 250.238C103.923 250.909 103.57 251.796 103.568 252.719C103.568 254.372 106.184 256.195 106.184 256.195L108.266 257.783L110.345 259.368L112.428 260.956L114.506 262.541L116.585 264.13L118.667 265.714L120.746 267.303C120.746 267.303 120.942 267.597 121.057 267.729H118.834C117.704 267.729 116.621 268.177 115.822 268.976C115.023 269.775 114.574 270.858 114.574 271.988C114.574 274.054 117.982 276.162 117.982 276.162L119.941 277.133L121.896 278.1L123.855 279.067L125.81 280.034L127.769 281L129.729 281.967L131.697 282.815L133.656 283.782L135.611 284.749L137.57 285.72L139.525 286.687L141.484 287.653L145.241 291.972H131.458C130.498 291.972 129.577 292.354 128.898 293.033C128.219 293.712 127.838 294.632 127.838 295.593C127.838 297.083 130.027 298.919 130.027 298.919C175.541 337.644 220.919 376.6 266.783 414.877C351.943 398.036 416.471 323.827 418.413 234.191C418.413 233.62 418.434 233.054 418.443 232.487C418.025 232.087 417.591 231.704 417.152 231.299ZM254.793 347.982L254.964 348.062L255.053 348.25C254.972 348.143 254.883 348.054 254.793 347.982Z" fill="#005DFF"/>
<path d="M282.494 319.977C332.187 319.977 372.471 279.693 372.471 230C372.471 180.307 332.187 140.023 282.494 140.023C232.802 140.023 192.518 180.307 192.518 230C192.518 279.693 232.802 319.977 282.494 319.977Z" fill="white"/>
<path fill-rule="evenodd" clip-rule="evenodd" d="M282.496 151.736C239.272 151.736 204.232 186.776 204.232 230C204.232 273.224 239.272 308.264 282.496 308.264C325.72 308.264 360.76 273.224 360.76 230C360.76 186.776 325.72 151.736 282.496 151.736ZM199.973 230C199.973 184.424 236.92 147.477 282.496 147.477C328.072 147.477 365.019 184.424 365.019 230C365.019 275.576 328.072 312.523 282.496 312.523C236.92 312.523 199.973 275.576 199.973 230Z" fill="#42526E"/>
<path fill-rule="evenodd" clip-rule="evenodd" d="M282.602 168.241C283.778 168.241 284.732 169.194 284.732 170.37V227.87H325.408C326.584 227.87 327.537 228.824 327.537 230C327.537 231.176 326.584 232.13 325.408 232.13H282.602C281.426 232.13 280.473 231.176 280.473 230V170.37C280.473 169.194 281.426 168.241 282.602 168.241Z" fill="#42526E"/>
<path d="M282.496 234.259C284.848 234.259 286.755 232.352 286.755 230C286.755 227.648 284.848 225.741 282.496 225.741C280.143 225.741 278.236 227.648 278.236 230C278.236 232.352 280.143 234.259 282.496 234.259Z" fill="#42526E"/>
<path fill-rule="evenodd" clip-rule="evenodd" d="M115.213 188.153C115.213 186.153 116.834 184.532 118.833 184.532H179.102C181.101 184.532 182.722 186.153 182.722 188.153C182.722 190.152 181.101 191.773 179.102 191.773H118.833C116.834 191.773 115.213 190.152 115.213 188.153Z" fill="white"/>
<path fill-rule="evenodd" clip-rule="evenodd" d="M158.445 146.306C158.445 143.953 160.352 142.046 162.705 142.046H208.918C211.27 142.046 213.177 143.953 213.177 146.306C213.177 148.658 211.27 150.565 208.918 150.565H162.705C160.352 150.565 158.445 148.658 158.445 146.306Z" fill="white"/>
<path fill-rule="evenodd" clip-rule="evenodd" d="M114.574 271.847C114.574 269.495 116.481 267.588 118.833 267.588H179.102C181.454 267.588 183.361 269.495 183.361 271.847C183.361 274.199 181.454 276.106 179.102 276.106H118.833C116.481 276.106 114.574 274.199 114.574 271.847Z" fill="white"/>
<path fill-rule="evenodd" clip-rule="evenodd" d="M158.445 313.694C158.445 311.342 160.352 309.435 162.705 309.435H208.918C211.27 309.435 213.177 311.342 213.177 313.694C213.177 316.047 211.27 317.954 208.918 317.954H162.705C160.352 317.954 158.445 316.047 158.445 313.694Z" fill="white"/>
<path fill-rule="evenodd" clip-rule="evenodd" d="M181.504 167.231C181.504 165.232 183.125 163.611 185.124 163.611H191.56C193.559 163.611 195.18 165.232 195.18 167.231C195.18 169.231 193.559 170.852 191.56 170.852H185.124C183.125 170.852 181.504 169.231 181.504 167.231Z" fill="white"/>
<path fill-rule="evenodd" clip-rule="evenodd" d="M183.207 292.773C183.207 290.773 184.828 289.153 186.827 289.153H198.374C200.374 289.153 201.995 290.773 201.995 292.773C201.995 294.772 200.374 296.393 198.374 296.393H186.827C184.828 296.393 183.207 294.772 183.207 292.773Z" fill="white"/>
<path fill-rule="evenodd" clip-rule="evenodd" d="M171.92 250.926C171.92 248.573 173.827 246.667 176.179 246.667H182.615C184.967 246.667 186.874 248.573 186.874 250.926C186.874 253.278 184.967 255.185 182.615 255.185H176.179C173.827 255.185 171.92 253.278 171.92 250.926Z" fill="white"/>
<path fill-rule="evenodd" clip-rule="evenodd" d="M103.561 252.574C103.561 250.575 105.181 248.954 107.181 248.954H118.728C120.727 248.954 122.348 250.575 122.348 252.574C122.348 254.573 120.727 256.194 118.728 256.194H107.181C105.181 256.194 103.561 254.573 103.561 252.574Z" fill="white"/>
<path fill-rule="evenodd" clip-rule="evenodd" d="M127.838 295.593C127.838 293.593 129.459 291.972 131.458 291.972H143.005C145.005 291.972 146.625 293.593 146.625 295.593C146.625 297.592 145.005 299.213 143.005 299.213H131.458C129.459 299.213 127.838 297.592 127.838 295.593Z" fill="white"/>
<path fill-rule="evenodd" clip-rule="evenodd" d="M163.189 209.079C163.189 207.079 164.81 205.458 166.81 205.458H178.357C180.356 205.458 181.977 207.079 181.977 209.079C181.977 211.078 180.356 212.699 178.357 212.699H166.81C164.81 212.699 163.189 211.078 163.189 209.079Z" fill="white"/>
<path fill-rule="evenodd" clip-rule="evenodd" d="M96.957 207.426C96.957 205.074 98.864 203.167 101.216 203.167H112.763C115.115 203.167 117.022 205.074 117.022 207.426C117.022 209.778 115.115 211.685 112.763 211.685H101.216C98.864 211.685 96.957 209.778 96.957 207.426Z" fill="white"/>
<path fill-rule="evenodd" clip-rule="evenodd" d="M133.801 164.407C133.801 162.408 135.422 160.787 137.421 160.787H148.968C150.967 160.787 152.588 162.408 152.588 164.407C152.588 166.407 150.967 168.028 148.968 168.028H137.421C135.422 168.028 133.801 166.407 133.801 164.407Z" fill="white"/>
<path fill-rule="evenodd" clip-rule="evenodd" d="M79.8613 230C79.8613 228.001 81.4822 226.38 83.4817 226.38H167.176C169.176 226.38 170.797 228.001 170.797 230C170.797 231.999 169.176 233.62 167.176 233.62H83.4817C81.4822 233.62 79.8613 231.999 79.8613 230Z" fill="white"/>
</svg>
