<svg width="25" height="24" viewBox="0 0 25 24" fill="none" xmlns="http://www.w3.org/2000/svg">
<mask id="mask0_31604_102" style="mask-type:alpha" maskUnits="userSpaceOnUse" x="0" y="0" width="25" height="24">
<rect x="0.499512" width="24" height="24" fill="#D9D9D9"/>
</mask>
<g mask="url(#mask0_31604_102)">
<path d="M12.4997 19.2C11.3797 19.2 10.3097 19.375 9.28971 19.725C8.26971 20.075 7.33971 20.6 6.49971 21.3V21.6H18.4997V21.3C17.6597 20.6 16.7297 20.075 15.7097 19.725C14.6897 19.375 13.6197 19.2 12.4997 19.2ZM4.09971 20.22C5.17971 19.16 6.43471 18.325 7.86471 17.715C9.29471 17.105 10.8397 16.8 12.4997 16.8C14.1597 16.8 15.7047 17.105 17.1347 17.715C18.5647 18.325 19.8197 19.16 20.8997 20.22V4.8H4.09971V20.22ZM12.4997 14.4C11.3397 14.4 10.3497 13.99 9.52971 13.17C8.70971 12.35 8.29971 11.36 8.29971 10.2C8.29971 9.04 8.70971 8.05 9.52971 7.23C10.3497 6.41 11.3397 6 12.4997 6C13.6597 6 14.6497 6.41 15.4697 7.23C16.2897 8.05 16.6997 9.04 16.6997 10.2C16.6997 11.36 16.2897 12.35 15.4697 13.17C14.6497 13.99 13.6597 14.4 12.4997 14.4ZM12.4997 12C12.9997 12 13.4247 11.825 13.7747 11.475C14.1247 11.125 14.2997 10.7 14.2997 10.2C14.2997 9.7 14.1247 9.275 13.7747 8.925C13.4247 8.575 12.9997 8.4 12.4997 8.4C11.9997 8.4 11.5747 8.575 11.2247 8.925C10.8747 9.275 10.6997 9.7 10.6997 10.2C10.6997 10.7 10.8747 11.125 11.2247 11.475C11.5747 11.825 11.9997 12 12.4997 12ZM4.09971 24C3.43971 24 2.87471 23.765 2.40471 23.295C1.93471 22.825 1.69971 22.26 1.69971 21.6V4.8C1.69971 4.14 1.93471 3.575 2.40471 3.105C2.87471 2.635 3.43971 2.4 4.09971 2.4H5.29971V1.2C5.29971 0.537258 5.83697 0 6.49971 0C7.16245 0 7.69971 0.537258 7.69971 1.2V2.4H17.2997V1.2C17.2997 0.537258 17.837 0 18.4997 0C19.1624 0 19.6997 0.537259 19.6997 1.2V2.4H20.8997C21.5597 2.4 22.1247 2.635 22.5947 3.105C23.0647 3.575 23.2997 4.14 23.2997 4.8V21.6C23.2997 22.26 23.0647 22.825 22.5947 23.295C22.1247 23.765 21.5597 24 20.8997 24H4.09971Z" fill="#42526E"/>
</g>
</svg>
